<svg xmlns="http://www.w3.org/2000/svg" aria-hidden="true" style="position:absolute;width:0;height:0;overflow:hidden">
  <defs>
    <symbol id="icon-chocolate" viewBox="0 0 24 24">
      <path fill="#fcf1e0" d="m2.958 15.057 8.083-13.068.48-.506 6.177 4.118.042 2.485 1.508 2.46-6.66 10.557-9.629-6.047z" style="fill:var(--color3, #fcf1e0)"/>
      <path fill="none" stroke="#fd9222" stroke-linecap="round" stroke-linejoin="round" stroke-width="2" d="M16.226 17.91 5.587 11.262m2.934-4.813 10.639 6.648M7.972 19.398 16.774 4.96m3.608 6.132c-2.28-1.425-3.175-2.538-1.708-4.944l-7.219-4.511-8.802 14.438 10.639 6.648 7.09-11.63z" style="stroke:var(--color2, #fd9222)"/>
    </symbol>
    <symbol id="icon-coin" viewBox="0 0 24 24">
      <path d="M12 2C6.5 2 2 6.5 2 12s4.5 10 10 10 10-4.5 10-10S17.5 2 12 2zm0 18c-4.4 0-8-3.6-8-8s3.6-8 8-8 8 3.6 8 8-3.6 8-8 8z"/>
      <path d="M13.3 11h-2.6c-.5 0-.9-.4-.9-.9s.4-.9.9-.9h3.7c.6 0 1-.4 1-1s-.4-1-1-1H13v-.9c0-.6-.4-1-1-1s-1 .4-1 1v.9h-.3c-1.6 0-2.9 1.3-2.9 2.9S9.1 13 10.7 13h2.5c.5 0 .9.4.9.9s-.4.9-.9.9H9.5c-.6 0-1 .4-1 1s.4 1 1 1H11v.9c0 .6.4 1 1 1s1-.4 1-1v-.9h.3c1.6 0 2.9-1.3 2.9-2.9S14.9 11 13.3 11z"/>
    </symbol>
    <symbol id="icon-arrow-down" viewBox="0 0 24 24">
      <path d="M12.71 13.4a1.007 1.007 0 0 1-.71.296.998.998 0 0 1-.71-.296L6.71 8.81A1.007 1.007 0 0 0 6 8.514a.998.998 0 0 0-1.001 1.001c0 .264.105.518.291.705l4.59 4.59a3 3 0 0 0 4.24 0l4.59-4.59a.999.999 0 0 0 0-1.41 1.001 1.001 0 0 0-1.421 0l-4.58 4.59z"/>
    </symbol>
    <symbol id="icon-chocolate-bar" viewBox="0 0 24 24">
      <path d="m10.367 1.81 5.645 5.652.06-.06a.642.642 0 0 1 .888-.01l.655.655a.636.636 0 0 1 .062.821l-.003.005-.107.144 4.62 4.62a1.045 1.045 0 0 1 0 1.485l-7.072 7.072a1.045 1.045 0 0 1-1.485 0l-3.335-3.335a.626.626 0 0 1-.459.238.628.628 0 0 1-.483-.185l-1.95-1.95a.642.642 0 0 1-.01-.888l.005-.005.058-.057-5.645-5.645a1.045 1.045 0 0 1 0-1.485l7.072-7.073a1.045 1.045 0 0 1 1.485 0v.001zm4.936 6.36-1.317-1.316a.432.432 0 0 0-.319-.135.45.45 0 0 0-.319.135l-2.685 2.685a.46.46 0 0 0 0 .646l1.312 1.312.457-.457-1.174-1.174 2.408-2.415 1.177 1.18.46-.46zm-3.807 3.804-1.316-1.316a.432.432 0 0 0-.319-.135.45.45 0 0 0-.319.135L6.85 13.35a.444.444 0 0 0 0 .638l1.314 1.314.462-.462-1.178-1.173 2.415-2.408 1.173 1.172.459-.458zM6.617 6.145 9.302 8.83c.18.18.465.18.638-.008l2.685-2.685a.434.434 0 0 0 .135-.315h.008a.46.46 0 0 0-.135-.322L9.948 2.815a.455.455 0 0 0-.646 0L6.617 5.508a.443.443 0 0 0 0 .637zM2.814 9.948l2.685 2.685c.18.18.465.18.638 0l2.685-2.685a.437.437 0 0 0 .135-.322h.007a.447.447 0 0 0-.135-.322L6.144 6.619a.432.432 0 0 0-.319-.135.45.45 0 0 0-.319.135L2.814 9.311a.443.443 0 0 0 0 .637zm5.2 6.565 1.771 1.772 7.227-9.78-.491-.491-8.507 8.499z"/>
      <path d="m10.367 1.81 5.645 5.652.06-.06a.642.642 0 0 1 .888-.01l.655.655a.636.636 0 0 1 .062.821l-.003.005-.107.144 4.62 4.62a1.045 1.045 0 0 1 0 1.485l-7.072 7.072a1.045 1.045 0 0 1-1.485 0l-3.335-3.335a.626.626 0 0 1-.459.238.628.628 0 0 1-.483-.185l-1.95-1.95a.642.642 0 0 1-.01-.888l.005-.005.058-.057-5.645-5.645a1.045 1.045 0 0 1 0-1.485l7.072-7.073a1.045 1.045 0 0 1 1.485 0v.001zm4.936 6.36-1.317-1.316a.432.432 0 0 0-.319-.135.45.45 0 0 0-.319.135l-2.685 2.685a.46.46 0 0 0 0 .646l1.312 1.312.457-.457-1.174-1.174 2.408-2.415 1.177 1.18.46-.46zm-3.807 3.804-1.316-1.316a.432.432 0 0 0-.319-.135.45.45 0 0 0-.319.135L6.85 13.35a.444.444 0 0 0 0 .638l1.314 1.314.462-.462-1.178-1.173 2.415-2.408 1.173 1.172.459-.458zM6.617 6.145 9.302 8.83c.18.18.465.18.638-.008l2.685-2.685a.434.434 0 0 0 .135-.315h.008a.46.46 0 0 0-.135-.322L9.948 2.815a.455.455 0 0 0-.646 0L6.617 5.508a.443.443 0 0 0 0 .637zM2.814 9.948l2.685 2.685c.18.18.465.18.638 0l2.685-2.685a.437.437 0 0 0 .135-.322h.007a.447.447 0 0 0-.135-.322L6.144 6.619a.432.432 0 0 0-.319-.135.45.45 0 0 0-.319.135L2.814 9.311a.443.443 0 0 0 0 .637zm5.2 6.565 1.771 1.772 7.227-9.78-.491-.491-8.507 8.499z"/>
    </symbol>
    <symbol id="icon-facebook" viewBox="0 0 24 24">
      <path d="M14.64 3.48h.72v2.7h-.9c-.36 0-.72 0-.9.18-.18.18-.18.36-.18.78v.96h1.98v2.28h-1.98v9.9h-3.06v-9.96H8.7V8.04h1.62v-.78c0-1.32.18-2.28.54-2.7.54-.78 1.62-1.14 3.24-1.14.18.06.36.06.54.06z"/>
    </symbol>
    <symbol id="icon-instagram" viewBox="0 0 24 24">
      <path d="M21.538 8.067a6.942 6.942 0 0 0-.447-2.359 4.913 4.913 0 0 0-2.807-2.803 7.05 7.05 0 0 0-2.331-.447c-1.026-.046-1.351-.059-3.954-.059s-2.937 0-3.956.059a7.059 7.059 0 0 0-2.33.447 4.907 4.907 0 0 0-2.807 2.803 6.98 6.98 0 0 0-.447 2.326c-.046 1.025-.06 1.35-.06 3.949s0 2.931.06 3.949c.016.796.166 1.582.447 2.328a4.913 4.913 0 0 0 2.808 2.802 7.03 7.03 0 0 0 2.33.479c1.027.046 1.352.06 3.956.06s2.937 0 3.956-.06a7.043 7.043 0 0 0 2.331-.446 4.916 4.916 0 0 0 2.807-2.803c.28-.745.431-1.531.447-2.328.046-1.024.06-1.349.06-3.949-.002-2.599-.002-2.929-.062-3.948zm-9.546 8.831c-2.723 0-4.929-2.202-4.929-4.921s2.206-4.921 4.929-4.921c2.721 0 4.929 2.202 4.929 4.921s-2.208 4.921-4.929 4.921zm5.126-8.876a1.147 1.147 0 1 1 0-2.294 1.147 1.147 0 1 1 0 2.294z"/>
      <path d="M11.994 14.982a3.002 3.002 0 1 0 .001-6.005 3.002 3.002 0 0 0-.001 6.005z"/>
    </symbol>
    <symbol id="icon-spoon" viewBox="0 0 24 24">
      <path d="M11.589 10.579a3.865 3.865 0 0 1-.882-2.461c0-3.243 3.886-6.482 7.772-6.482a3.888 3.888 0 0 1 3.886 3.887c0 3.887-3.238 7.773-6.484 7.773a3.866 3.866 0 0 1-2.461-.883l-9.569 9.571a1.298 1.298 0 0 1-1.834-1.834l9.573-9.571z"/>
    </symbol>
    <symbol id="icon-play" viewBox="0 0 24 24">
      <path d="M8.182 18V6.545l10.909 5.727-10.909 5.727z"/>
      <path stroke-width=".545" d="M23.727 12c0 6.477-5.25 11.727-11.727 11.727S.273 18.477.273 12 5.523.273 12 .273 23.727 5.523 23.727 12z"/>
    </symbol>
    <symbol id="icon-twitter" viewBox="0 0 24 24">
      <path d="M22 5.924a8.557 8.557 0 0 1-2.363.648 4.076 4.076 0 0 0 1.804-2.266 8.192 8.192 0 0 1-2.6.993 4.099 4.099 0 0 0-7.093 2.803c0 .325.027.638.095.935-3.409-.166-6.425-1.8-8.451-4.289a4.107 4.107 0 0 0 1.26 5.481A4.042 4.042 0 0 1 2.8 9.724v.045a4.12 4.12 0 0 0 3.285 4.029 4.101 4.101 0 0 1-1.075.135c-.263 0-.528-.015-.776-.07.531 1.624 2.039 2.818 3.831 2.856a8.24 8.24 0 0 1-5.084 1.749A7.72 7.72 0 0 1 2 18.412a11.545 11.545 0 0 0 6.29 1.84c7.545 0 11.67-6.25 11.67-11.667 0-.181-.006-.356-.015-.53A8.177 8.177 0 0 0 22 5.926z"/>
    </symbol>
 <symbol id="icon-checkbox" viewBox="0 0 32 32">
      <path d="M12.636 31.213c1.395 0 2.449-.536 3.163-1.607l15.448-23.28c.257-.379.446-.753.569-1.121.123-.379.184-.742.184-1.088 0-.96-.335-1.752-1.004-2.377-.658-.636-1.473-.954-2.444-.954-.669 0-1.238.134-1.707.402-.457.257-.893.703-1.305 1.339L12.569 22.895l-6.494-7.782c-.703-.815-1.584-1.222-2.644-1.222-.993 0-1.813.318-2.46.954S0 16.279 0 17.238c0 .435.067.848.201 1.238.145.379.407.775.787 1.188l8.619 10.159c.792.926 1.802 1.389 3.029 1.389z"/>
    </symbol>
    <symbol id="icon-mail" viewBox="0 0 32 32">
      <path stroke-linecap="round" stroke-linejoin="round" stroke-width="2.667" d="M5.333 5.333h21.333c1.467 0 2.667 1.2 2.667 2.667v16c0 1.467-1.2 2.667-2.667 2.667H5.333A2.675 2.675 0 0 1 2.666 24V8c0-1.467 1.2-2.667 2.667-2.667z"/>
      <path stroke-linecap="round" stroke-linejoin="round" stroke-width="2.667" d="M29.333 8 16 17.333 2.667 8"/>
    </symbol>
    <symbol id="icon-phone" viewBox="0 0 32 32">
      <path stroke-linecap="round" stroke-linejoin="round" stroke-width="2.667" d="M29.333 22.56v4a2.655 2.655 0 0 1-1.812 2.537 2.672 2.672 0 0 1-1.094.13 26.398 26.398 0 0 1-11.507-4.093 25.988 25.988 0 0 1-8-8 26.382 26.382 0 0 1-4.093-11.56 2.657 2.657 0 0 1 .687-2.038 2.664 2.664 0 0 1 1.967-.868h4a2.67 2.67 0 0 1 2.667 2.294 17.16 17.16 0 0 0 .933 3.747 2.675 2.675 0 0 1-.6 2.814l-1.693 1.693a21.333 21.333 0 0 0 8 8l1.693-1.693c.362-.359.82-.606 1.319-.712s1.017-.067 1.495.112c1.21.451 2.467.765 3.747.933a2.665 2.665 0 0 1 2.293 2.707z"/>
    </symbol>
    <symbol id="icon-user" viewBox="0 0 32 32">
      <path stroke-linecap="round" stroke-linejoin="round" stroke-width="2.667" d="M26.667 28v-2.667A5.332 5.332 0 0 0 21.334 20H10.667a5.332 5.332 0 0 0-5.333 5.333V28M16 14.667A5.333 5.333 0 1 0 16 4a5.333 5.333 0 0 0 0 10.667z"/>
    </symbol>
    <symbol id="icon-x-close" viewBox="0 0 32 32">
      <path stroke-linecap="round" stroke-linejoin="round" stroke-width="2.286" d="M24 8 8 24M8 8l16 16"/>
    </symbol>
    <symbol id="icon-card-arrow" viewBox="0 0 32 32">
<path stroke-linejoin="round" stroke-linecap="round" stroke-miterlimit="4" stroke-width="1.3333" d="M9.143 16h13.714M22.857 16l-3.429-3.429M22.857 16l-3.429 3.429"></path>
<path stroke-linejoin="round" stroke-linecap="round" stroke-miterlimit="4" stroke-width="1.3333" d="M16 30.857c8.205 0 14.857-6.652 14.857-14.857s-6.652-14.857-14.857-14.857c-8.205 0-14.857 6.652-14.857 14.857s6.652 14.857 14.857 14.857z"></path>
</symbol>
<symbol id="icon-hamburger" viewBox="0 0 32 32">
<path stroke-linejoin="round" stroke-linecap="round" stroke-miterlimit="4" stroke-width="2.2857" d="M4 16h24M4 8h24M4 24h24"></path>
</symbol>
<symbol id="icon-play" viewBox="0 0 32 32">
<path d="M11.886 23.771v-13.714l12.8 6.857-12.8 6.857z"></path>
<path stroke-linejoin="miter" stroke-linecap="butt" stroke-miterlimit="4" stroke-width="0.9143" d="M31.543 16c0 8.584-6.959 15.543-15.543 15.543s-15.543-6.959-15.543-15.543c0-8.584 6.959-15.543 15.543-15.543s15.543 6.959 15.543 15.543z"></path>
</symbol>
</defs>
</svg>
